<svg xmlns="http://www.w3.org/2000/svg" xmlns:xlink="http://www.w3.org/1999/xlink" xmlns:lucid="lucid" width="1760" height="1360"><g transform="translate(0 0)" lucid:page-tab-id="0_0"><path d="M0 0h1760v1360H0z" fill="#fff"/><path d="M820 40l100 70-100 70-100-70z" stroke="#c92d39" stroke-width="2" fill="#c1e4f7"/><use xlink:href="#a" transform="matrix(1,0,0,1,725,45) translate(16.07499999999999 68.60000000000001)"/><path d="M1200 180l80 60-80 60-80-60z" stroke="#000" stroke-width="2" fill="#c1e4f7"/><use xlink:href="#b" transform="matrix(1,0,0,1,1125,185) translate(49.025 58.6)"/><path d="M1201 160.5h-2V111h-47.98v-2H1201zM921.74 111v-2h117.73v2zM921.74 111h-3v-.12L920 110l-1.26-.88V109h3zM1200 175.5l-4.64-14.25h9.28z"/><path d="M1200 178.75l-6-18.5h12zm-3.26-16.5l3.26 10.03 3.26-10.03z"/><use xlink:href="#c" transform="matrix(1,0,0,1,1039.471897,99.2) translate(0 14.4)"/><path d="M641 580.5h-2V326.06h2zM718.26 111H641v193.45h-2V109h79.26zM721.26 109.12L720 110l1.26.88v.12h-3v-2h3zM640 595.5l-4.64-14.25h9.28z"/><path d="M640 598.75l-6-18.5h12zm-3.26-16.5l3.26 10.03 3.26-10.03z"/><use xlink:href="#d" transform="matrix(1,0,0,1,555.075,304.446897) translate(0 14.4)"/><path d="M640 600l80 60-80 60-80-60z" stroke="#000" stroke-width="2" fill="#c1e4f7"/><use xlink:href="#b" transform="matrix(1,0,0,1,565,605) translate(49.025 58.6)"/><path d="M541 800.6h-2v-59.55h2zM558.33 661H541v58.45h-2V659h19.33zM560 660l1.33 1h-3v-2h3zM540 815.6l-4.64-14.27h9.28z"/><path d="M540 818.83l-6-18.5h12zm-3.26-16.5l3.26 10.03 3.26-10.03z"/><use xlink:href="#e" transform="matrix(1,0,0,1,476.6,719.4502385000001) translate(0 14.4)"/><path d="M540 820l100 60-100 60-100-60z" stroke="#000" stroke-width="2" fill="#c1e4f7"/><use xlink:href="#f" transform="matrix(1,0,0,1,445,825) translate(25.075000000000003 58.6)"/><path d="M301 960.5h-2v-69.7h2zM438.06 881h-29.12v-2h29.12zM441.06 879.37L440 880l1.06.63v.37h-3v-2h3zM300 975.5l-4.64-14.25h9.28z"/><path d="M300 978.75l-6-18.5h12zm-3.26-16.5l3.26 10.03 3.26-10.03z"/><use xlink:href="#g" transform="matrix(1,0,0,1,289.2354137688004,869.2) translate(0 14.4)"/><use xlink:href="#h" transform="matrix(1,0,0,1,289.2354137688004,869.2) translate(32.85 14.4)"/><use xlink:href="#i" transform="matrix(1,0,0,1,289.2354137688004,869.2) translate(52.85 14.4)"/><use xlink:href="#j" transform="matrix(1,0,0,1,289.2354137688004,869.2) translate(79.7 14.4)"/><path d="M300 980l80 60-80 60-80-60z" stroke="#000" stroke-width="2" fill="#c1e4f7"/><use xlink:href="#k" transform="matrix(1,0,0,1,225,985) translate(54.05 58.6)"/><path d="M141 1080.76h-2v-29.96h2zm77.33-39.76h-45.7v-2h45.7zM220 1040l1.33 1h-3v-2h3zM140 1095.76l-4.64-14.26h9.28z"/><path d="M140 1099l-6-18.5h12zm-3.26-16.5l3.26 10.03 3.26-10.03z"/><use xlink:href="#l" transform="matrix(1,0,0,1,126.69166650000003,1029.2) translate(0 14.4)"/><path d="M60 1100h160v120H60z" stroke="#000" stroke-width="2" fill="#c7e8ac"/><use xlink:href="#m" transform="matrix(1,0,0,1,65,1105) translate(40.525 58.6)"/><use xlink:href="#n" transform="matrix(1,0,0,1,65,1105) translate(90.525 58.6)"/><path d="M501 1080.76h-2v-29.96h2zM381.67 1041v-2h15.8v2zM381.67 1041h-3l1.33-1-1.33-1h3zM500 1095.76l-4.64-14.26h9.28z"/><path d="M500 1099l-6-18.5h12zm-3.26-16.5l3.26 10.03 3.26-10.03z"/><use xlink:href="#o" transform="matrix(1,0,0,1,397.48333349999996,1029.2) translate(0 14.4)"/><use xlink:href="#p" transform="matrix(1,0,0,1,397.48333349999996,1029.2) translate(25 14.4)"/><use xlink:href="#q" transform="matrix(1,0,0,1,397.48333349999996,1029.2) translate(45.95 14.4)"/><use xlink:href="#r" transform="matrix(1,0,0,1,397.48333349999996,1029.2) translate(84.80000000000001 14.4)"/><path d="M420 1100h160v120H420z" stroke="#000" stroke-width="2" fill="#c7e8ac"/><use xlink:href="#s" transform="matrix(1,0,0,1,425.00000000000006,1105) translate(40.525 58.6)"/><use xlink:href="#n" transform="matrix(1,0,0,1,425.00000000000006,1105) translate(90.525 58.6)"/><path d="M781 960.76h-2V890.8h2zM641.94 881v-2h25.7v2zM641.94 881h-3v-.37L640 880l-1.06-.63V879h3zM780 975.76l-4.64-14.26h9.28z"/><path d="M780 979l-6-18.5h12zm-3.26-16.5l3.26 10.03 3.26-10.03z"/><use xlink:href="#t" transform="matrix(1,0,0,1,667.6468255,869.2) translate(0 14.4)"/><use xlink:href="#i" transform="matrix(1,0,0,1,667.6468255,869.2) translate(20 14.4)"/><use xlink:href="#u" transform="matrix(1,0,0,1,667.6468255,869.2) translate(46.849999999999994 14.4)"/><use xlink:href="#q" transform="matrix(1,0,0,1,667.6468255,869.2) translate(91.85 14.4)"/><use xlink:href="#v" transform="matrix(1,0,0,1,667.6468255,869.2) translate(130.7 14.4)"/><path d="M700 980h160v120H700z" stroke="#000" stroke-width="2" fill="#c7e8ac"/><use xlink:href="#w" transform="matrix(1,0,0,1,705,985) translate(48.025 58.6)"/><use xlink:href="#n" transform="matrix(1,0,0,1,705,985) translate(83.025 58.6)"/><path d="M1361 820.5h-2V661h-182.32v-2H1361zM721.67 661v-2h362.06v2zM721.67 661h-3l1.33-1-1.33-1h3zM1360 835.5l-4.64-14.25h9.28z"/><path d="M1360 838.75l-6-18.5h12zm-3.26-16.5l3.26 10.03 3.26-10.03z"/><use xlink:href="#x" transform="matrix(1,0,0,1,1083.7333335,649.2) translate(0 14.4)"/><path d="M1360 840l80 60-80 60-80-60z" stroke="#000" stroke-width="2" fill="#c1e4f7"/><use xlink:href="#k" transform="matrix(1,0,0,1,1285,845) translate(54.05 58.6)"/><path d="M1131.83 901H1111v59.5h-2V899h22.83zm146.5 0h-100.55v-2h100.55zM1280 900l1.33 1h-3v-2h3zM1110 975.5l-4.64-14.27h9.28z"/><path d="M1110 978.73l-6-18.5h12zm-3.26-16.5l3.26 10.03 3.26-10.03z"/><use xlink:href="#l" transform="matrix(1,0,0,1,1131.8250975,889.2) translate(0 14.4)"/><path d="M1110 980l90 70-90 70-90-70z" stroke="#000" stroke-width="2" fill="#c1e4f7"/><use xlink:href="#y" transform="matrix(1,0,0,1,1025,985) translate(24.125 57.8)"/><use xlink:href="#z" transform="matrix(1,0,0,1,1025,985) translate(132.97500000000002 57.8)"/><use xlink:href="#A" transform="matrix(1,0,0,1,1025,985) translate(23.5 79.4)"/><path d="M981 1120.76h-2v-34.65h2zm37.37-69.76H981v13.5h-2V1049h39.37zM1020 1050l1.3 1h-2.93v-2h2.92zM980 1135.76l-4.64-14.26h9.28z"/><path d="M980 1139l-6-18.5h12zm-3.26-16.5l3.26 10.03 3.26-10.03z"/><use xlink:href="#B" transform="matrix(1,0,0,1,970.5,1064.514411) translate(0 14.4)"/><path d="M900 1140h160v120H900z" stroke="#000" stroke-width="2" fill="#c7e8ac"/><use xlink:href="#C" transform="matrix(1,0,0,1,905,1145) translate(40.525 58.6)"/><use xlink:href="#n" transform="matrix(1,0,0,1,905,1145) translate(90.525 58.6)"/><path d="M1281 1120.76h-2v-54.65h2zm-79.37-69.76v-2h64.92v2z"/><path d="M1201.63 1051h-2.92l1.3-1-1.3-1h2.93zM1280 1135.76l-4.64-14.26h9.28z"/><path d="M1280 1139l-6-18.5h12zm-3.26-16.5l3.26 10.03 3.26-10.03z"/><use xlink:href="#D" transform="matrix(1,0,0,1,1266.55,1044.514411) translate(0 14.4)"/><path d="M1200 1140h160v120h-160z" stroke="#000" stroke-width="2" fill="#ffbbb1"/><use xlink:href="#E" transform="matrix(1,0,0,1,1205,1145) translate(70 58.6)"/><path d="M1581 970.76h-2V910.8h2zM1441.67 901v-2h40.8v2zM1441.67 901h-3l1.33-1-1.33-1h3zM1580 985.76l-4.64-14.26h9.28z"/><path d="M1580 989l-6-18.5h12zm-3.26-16.5l3.26 10.03 3.26-10.03z"/><use xlink:href="#o" transform="matrix(1,0,0,1,1482.4833335,889.2) translate(0 14.4)"/><use xlink:href="#p" transform="matrix(1,0,0,1,1482.4833335,889.2) translate(25 14.4)"/><use xlink:href="#q" transform="matrix(1,0,0,1,1482.4833335,889.2) translate(45.95 14.4)"/><use xlink:href="#r" transform="matrix(1,0,0,1,1482.4833335,889.2) translate(84.80000000000001 14.4)"/><path d="M1500 990h160v120h-160z" stroke="#000" stroke-width="2" fill="#c7e8ac"/><use xlink:href="#F" transform="matrix(1,0,0,1,1505,995) translate(40.525 58.6)"/><use xlink:href="#n" transform="matrix(1,0,0,1,1505,995) translate(90.525 58.6)"/><path d="M991 280.56h-2V250.8h2zM1118.33 241h-30.16v-2h30.16zM1120 240l1.33 1h-3v-2h3zM990 295.56l-4.64-14.26h9.28z"/><path d="M990 298.8l-6-18.5h12zm-3.26-16.5l3.26 10.03 3.26-10.03z"/><use xlink:href="#e" transform="matrix(1,0,0,1,961.3675915,229.2) translate(0 14.4)"/><path d="M990 300l90 60-90 60-90-60z" stroke="#000" stroke-width="2" fill="#c1e4f7"/><use xlink:href="#f" transform="matrix(1,0,0,1,905,305) translate(15.075000000000003 58.6)"/><path d="M821 420.76h-2V371.2h2zM898.2 361h-18.35v-2h18.35zM901.2 359.2l-1.2.8 1.2.8v.2h-3v-2h3zM820 435.76l-4.64-14.26h9.28z"/><path d="M820 439l-6-18.5h12zm-3.26-16.5l3.26 10.03 3.26-10.03z"/><g><use xlink:href="#g" transform="matrix(1,0,0,1,760.15,349.601388) translate(0 14.4)"/><use xlink:href="#h" transform="matrix(1,0,0,1,760.15,349.601388) translate(32.85 14.4)"/><use xlink:href="#i" transform="matrix(1,0,0,1,760.15,349.601388) translate(52.85 14.4)"/><use xlink:href="#j" transform="matrix(1,0,0,1,760.15,349.601388) translate(79.7 14.4)"/></g><path d="M740 440h160v120H740z" stroke="#000" stroke-width="2" fill="#c7e8ac"/><g><use xlink:href="#s" transform="matrix(1,0,0,1,745,445) translate(40.525 58.6)"/><use xlink:href="#n" transform="matrix(1,0,0,1,745,445) translate(90.525 58.6)"/></g><path d="M1261 420.76h-2V370.8h2zM1081.8 361v-2h35.78v2zM1081.8 361h-3v-.2l1.2-.8-1.2-.8v-.2h3zM1260 435.76l-4.64-14.26h9.28z"/><path d="M1260 439l-6-18.5h12zm-3.26-16.5l3.26 10.03 3.26-10.03z"/><g><use xlink:href="#t" transform="matrix(1,0,0,1,1117.576388,349.2) translate(0 14.4)"/><use xlink:href="#i" transform="matrix(1,0,0,1,1117.576388,349.2) translate(20 14.4)"/><use xlink:href="#u" transform="matrix(1,0,0,1,1117.576388,349.2) translate(46.849999999999994 14.4)"/><use xlink:href="#q" transform="matrix(1,0,0,1,1117.576388,349.2) translate(91.85 14.4)"/><use xlink:href="#v" transform="matrix(1,0,0,1,1117.576388,349.2) translate(130.7 14.4)"/></g><path d="M1180 440h160v120h-160z" stroke="#000" stroke-width="2" fill="#c7e8ac"/><g><use xlink:href="#w" transform="matrix(1,0,0,1,1185,445) translate(48.025 58.6)"/><use xlink:href="#n" transform="matrix(1,0,0,1,1185,445) translate(83.025 58.6)"/></g><path d="M1461 300.76h-2V241h-2.2v-2h4.2zM1281.67 241v-2h82.2v2zM1281.67 241h-3l1.33-1-1.33-1h3zM1460 315.76l-4.64-14.26h9.28z"/><path d="M1460 319l-6-18.5h12zm-3.26-16.5l3.26 10.03 3.26-10.03z"/><g><use xlink:href="#x" transform="matrix(1,0,0,1,1363.8583335,229.2) translate(0 14.4)"/></g><path d="M1380 320h160v120h-160z" stroke="#000" stroke-width="2" fill="#c7e8ac"/><g><use xlink:href="#F" transform="matrix(1,0,0,1,1385,325) translate(40.525 58.6)"/><use xlink:href="#n" transform="matrix(1,0,0,1,1385,325) translate(90.525 58.6)"/></g><defs><path d="M232-93c-1 65-40 97-104 97C67 4 28-28 28-90v-158h33c8 89-33 224 67 224 102 0 64-133 71-224h33v155" id="G"/><path d="M85-194c31 0 48 13 60 33l-1-100h32l1 261h-30c-2-10 0-23-3-31C134-8 116 4 85 4 32 4 16-35 15-94c0-66 23-100 70-100zm9 24c-40 0-46 34-46 75 0 40 6 74 45 74 42 0 51-32 51-76 0-42-9-74-50-73" id="H"/><path d="M141-36C126-15 110 5 73 4 37 3 15-17 15-53c-1-64 63-63 125-63 3-35-9-54-41-54-24 1-41 7-42 31l-33-3c5-37 33-52 76-52 45 0 72 20 72 64v82c-1 20 7 32 28 27v20c-31 9-61-2-59-35zM48-53c0 20 12 33 32 33 41-3 63-29 60-74-43 2-92-5-92 41" id="I"/><path d="M117-194c89-4 53 116 60 194h-32v-121c0-31-8-49-39-48C34-167 62-67 57 0H25l-1-190h30c1 10-1 24 2 32 11-22 29-35 61-36" id="J"/><path d="M100-194c63 0 86 42 84 106H49c0 40 14 67 53 68 26 1 43-12 49-29l28 8c-11 28-37 45-77 45C44 4 14-33 15-96c1-61 26-98 85-98zm52 81c6-60-76-77-97-28-3 7-6 17-6 28h103" id="K"/><path d="M24 0v-261h32V0H24" id="L"/><path d="M135-143c-3-34-86-38-87 0 15 53 115 12 119 90S17 21 10-45l28-5c4 36 97 45 98 0-10-56-113-15-118-90-4-57 82-63 122-42 12 7 21 19 24 35" id="M"/><path d="M24-231v-30h32v30H24zM24 0v-190h32V0H24" id="N"/><path d="M108 0H70L1-190h34L89-25l56-165h34" id="O"/><path d="M84 4C-5 8 30-112 23-190h32v120c0 31 7 50 39 49 72-2 45-101 50-169h31l1 190h-30c-1-10 1-25-2-33-11 22-28 36-60 37" id="P"/><g id="a"><use transform="matrix(0.05,0,0,0.05,0,0)" xlink:href="#G"/><use transform="matrix(0.05,0,0,0.05,12.950000000000001,0)" xlink:href="#H"/><use transform="matrix(0.05,0,0,0.05,22.950000000000003,0)" xlink:href="#H"/><use transform="matrix(0.05,0,0,0.05,32.95,0)" xlink:href="#I"/><use transform="matrix(0.05,0,0,0.05,42.95,0)" xlink:href="#J"/><use transform="matrix(0.05,0,0,0.05,52.95,0)" xlink:href="#J"/><use transform="matrix(0.05,0,0,0.05,62.95,0)" xlink:href="#K"/><use transform="matrix(0.05,0,0,0.05,72.95,0)" xlink:href="#L"/><use transform="matrix(0.05,0,0,0.05,76.9,0)" xlink:href="#M"/><use transform="matrix(0.05,0,0,0.05,85.9,0)" xlink:href="#K"/><use transform="matrix(0.05,0,0,0.05,95.9,0)" xlink:href="#M"/><use transform="matrix(0.05,0,0,0.05,104.9,0)" xlink:href="#J"/><use transform="matrix(0.05,0,0,0.05,114.9,0)" xlink:href="#N"/><use transform="matrix(0.05,0,0,0.05,118.85000000000001,0)" xlink:href="#O"/><use transform="matrix(0.05,0,0,0.05,127.85000000000001,0)" xlink:href="#K"/><use transform="matrix(0.05,0,0,0.05,137.85000000000002,0)" xlink:href="#I"/><use transform="matrix(0.05,0,0,0.05,147.85000000000002,0)" xlink:href="#P"/></g><path d="M160-131c35 5 61 23 61 61C221 17 115-2 30 0v-248c76 3 177-17 177 60 0 33-19 50-47 57zm-97-11c50-1 110 9 110-42 0-47-63-36-110-37v79zm0 115c55-2 124 14 124-45 0-56-70-42-124-44v89" id="Q"/><path d="M100-194c62-1 85 37 85 99 1 63-27 99-86 99S16-35 15-95c0-66 28-99 85-99zM99-20c44 1 53-31 53-75 0-43-8-75-51-75s-53 32-53 75 10 74 51 75" id="R"/><path d="M115-194c55 1 70 41 70 98S169 2 115 4C84 4 66-9 55-30l1 105H24l-1-265h31l2 30c10-21 28-34 59-34zm-8 174c40 0 45-34 45-75s-6-73-45-74c-42 0-51 32-51 76 0 43 10 73 51 73" id="S"/><path d="M220-194c63 1 86 42 84 106H170c0 40 13 67 51 68 27 1 43-12 50-29l28 8c-11 29-37 44-78 45-38 0-62-16-74-46-14 27-36 45-76 46-37 0-59-20-59-57-1-64 63-63 126-63 3-35-8-55-41-54-25 0-41 8-44 31l-33-3c1-59 111-68 139-27 13-16 34-24 61-25zM78-20c42-2 63-28 60-74-43 2-94-4-94 41 0 20 13 33 34 33zm193-93c7-60-75-77-95-28-3 7-5 17-5 28h100" id="T"/><g id="b"><use transform="matrix(0.05,0,0,0.05,0,0)" xlink:href="#Q"/><use transform="matrix(0.05,0,0,0.05,12,0)" xlink:href="#R"/><use transform="matrix(0.05,0,0,0.05,22,0)" xlink:href="#S"/><use transform="matrix(0.05,0,0,0.05,32,0)" xlink:href="#T"/><use transform="matrix(0.05,0,0,0.05,48,0)" xlink:href="#L"/></g><path d="M137 0h-34L2-248h35l83 218 83-218h36" id="U"/><path d="M114-163C36-179 61-72 57 0H25l-1-190h30c1 12-1 29 2 39 6-27 23-49 58-41v29" id="V"/><path d="M177-190C167-65 218 103 67 71c-23-6-38-20-44-43l32-5c15 47 100 32 89-28v-30C133-14 115 1 83 1 29 1 15-40 15-95c0-56 16-97 71-98 29-1 48 16 59 35 1-10 0-23 2-32h30zM94-22c36 0 50-32 50-73 0-42-14-75-50-75-39 0-46 34-46 75s6 73 46 73" id="W"/><path d="M141-36C126-15 110 5 73 4 37 3 15-17 15-53c-1-64 63-63 125-63 3-35-9-54-41-54-24 1-41 7-42 31l-33-3c5-37 33-52 76-52 45 0 72 20 72 64v82c-1 20 7 32 28 27v20c-31 9-61-2-59-35zM48-53c0 20 12 33 32 33 41-3 63-29 60-74-43 2-92-5-92 41zm50-237c26 0 42 16 42 42 0 27-18 40-42 43-25-2-43-16-43-43 0-26 17-42 43-42zm-24 42c-2 26 37 32 45 10 6-16-3-33-21-33-16 0-23 10-24 23" id="X"/><g id="c"><use transform="matrix(0.05,0,0,0.05,0,0)" xlink:href="#U"/><use transform="matrix(0.05,0,0,0.05,11.65,0)" xlink:href="#N"/><use transform="matrix(0.05,0,0,0.05,15.600000000000001,0)" xlink:href="#H"/><use transform="matrix(0.05,0,0,0.05,25.6,0)" xlink:href="#K"/><use transform="matrix(0.05,0,0,0.05,35.6,0)" xlink:href="#V"/><use transform="matrix(0.05,0,0,0.05,41.550000000000004,0)" xlink:href="#K"/><use transform="matrix(0.05,0,0,0.05,51.550000000000004,0)" xlink:href="#W"/><use transform="matrix(0.05,0,0,0.05,61.550000000000004,0)" xlink:href="#X"/><use transform="matrix(0.05,0,0,0.05,71.55000000000001,0)" xlink:href="#K"/><use transform="matrix(0.05,0,0,0.05,81.55000000000001,0)" xlink:href="#J"/><use transform="matrix(0.05,0,0,0.05,91.55000000000001,0)" xlink:href="#H"/><use transform="matrix(0.05,0,0,0.05,101.55000000000001,0)" xlink:href="#K"/></g><path d="M210-169c-67 3-38 105-44 169h-31v-121c0-29-5-50-35-48C34-165 62-65 56 0H25l-1-190h30c1 10-1 24 2 32 10-44 99-50 107 0 11-21 27-35 58-36 85-2 47 119 55 194h-31v-121c0-29-5-49-35-48" id="Y"/><g id="d"><use transform="matrix(0.05,0,0,0.05,0,0)" xlink:href="#G"/><use transform="matrix(0.05,0,0,0.05,12.950000000000001,0)" xlink:href="#J"/><use transform="matrix(0.05,0,0,0.05,22.950000000000003,0)" xlink:href="#W"/><use transform="matrix(0.05,0,0,0.05,32.95,0)" xlink:href="#H"/><use transform="matrix(0.05,0,0,0.05,42.95,0)" xlink:href="#R"/><use transform="matrix(0.05,0,0,0.05,52.95,0)" xlink:href="#Y"/><use transform="matrix(0.05,0,0,0.05,67.9,0)" xlink:href="#M"/><use transform="matrix(0.05,0,0,0.05,76.9,0)" xlink:href="#P"/><use transform="matrix(0.05,0,0,0.05,86.9,0)" xlink:href="#H"/><use transform="matrix(0.05,0,0,0.05,96.9,0)" xlink:href="#H"/><use transform="matrix(0.05,0,0,0.05,106.9,0)" xlink:href="#I"/><use transform="matrix(0.05,0,0,0.05,116.9,0)" xlink:href="#J"/><use transform="matrix(0.05,0,0,0.05,126.9,0)" xlink:href="#J"/><use transform="matrix(0.05,0,0,0.05,136.9,0)" xlink:href="#K"/><use transform="matrix(0.05,0,0,0.05,146.9,0)" xlink:href="#L"/><use transform="matrix(0.05,0,0,0.05,150.85,0)" xlink:href="#M"/><use transform="matrix(0.05,0,0,0.05,159.85,0)" xlink:href="#K"/></g><path d="M197 0v-115H63V0H30v-248h33v105h134v-105h34V0h-34" id="Z"/><path d="M24-231v-30h32v30H24zM-9 49c24 4 33-6 33-30v-209h32V24c2 40-23 58-65 49V49" id="aa"/><path d="M115-194c53 0 69 39 70 98 0 66-23 100-70 100C84 3 66-7 56-30L54 0H23l1-261h32v101c10-23 28-34 59-34zm-8 174c40 0 45-34 45-75 0-40-5-75-45-74-42 0-51 32-51 76 0 43 10 73 51 73" id="ab"/><g id="e"><use transform="matrix(0.05,0,0,0.05,0,0)" xlink:href="#Z"/><use transform="matrix(0.05,0,0,0.05,12.950000000000001,0)" xlink:href="#aa"/><use transform="matrix(0.05,0,0,0.05,16.900000000000002,0)" xlink:href="#K"/><use transform="matrix(0.05,0,0,0.05,26.900000000000002,0)" xlink:href="#Y"/><use transform="matrix(0.05,0,0,0.05,41.85,0)" xlink:href="#Y"/><use transform="matrix(0.05,0,0,0.05,56.800000000000004,0)" xlink:href="#K"/><use transform="matrix(0.05,0,0,0.05,66.80000000000001,0)" xlink:href="#ab"/><use transform="matrix(0.05,0,0,0.05,76.80000000000001,0)" xlink:href="#R"/><use transform="matrix(0.05,0,0,0.05,86.80000000000001,0)" xlink:href="#K"/><use transform="matrix(0.05,0,0,0.05,96.80000000000001,0)" xlink:href="#J"/><use transform="matrix(0.05,0,0,0.05,106.80000000000001,0)" xlink:href="#H"/><use transform="matrix(0.05,0,0,0.05,116.80000000000001,0)" xlink:href="#K"/></g><path d="M59-47c-2 24 18 29 38 22v24C64 9 27 4 27-40v-127H5v-23h24l9-43h21v43h35v23H59v120" id="ac"/><g id="f"><use transform="matrix(0.05,0,0,0.05,0,0)" xlink:href="#G"/><use transform="matrix(0.05,0,0,0.05,12.950000000000001,0)" xlink:href="#H"/><use transform="matrix(0.05,0,0,0.05,22.950000000000003,0)" xlink:href="#H"/><use transform="matrix(0.05,0,0,0.05,32.95,0)" xlink:href="#I"/><use transform="matrix(0.05,0,0,0.05,42.95,0)" xlink:href="#J"/><use transform="matrix(0.05,0,0,0.05,52.95,0)" xlink:href="#J"/><use transform="matrix(0.05,0,0,0.05,62.95,0)" xlink:href="#K"/><use transform="matrix(0.05,0,0,0.05,72.95,0)" xlink:href="#L"/><use transform="matrix(0.05,0,0,0.05,76.9,0)" xlink:href="#M"/><use transform="matrix(0.05,0,0,0.05,85.9,0)" xlink:href="#K"/><use transform="matrix(0.05,0,0,0.05,95.9,0)" xlink:href="#M"/><use transform="matrix(0.05,0,0,0.05,104.9,0)" xlink:href="#M"/><use transform="matrix(0.05,0,0,0.05,113.9,0)" xlink:href="#ac"/><use transform="matrix(0.05,0,0,0.05,118.9,0)" xlink:href="#I"/><use transform="matrix(0.05,0,0,0.05,128.9,0)" xlink:href="#V"/><use transform="matrix(0.05,0,0,0.05,134.85,0)" xlink:href="#ac"/></g><path d="M63-220v92h138v28H63V0H30v-248h175v28H63" id="ad"/><path d="M181-161c11 16 11 39 14 66 9 87-81 123-140 81L37 7H8l32-38C30-47 27-69 25-95c-8-91 81-121 141-83l16-18h30zM109-20c57 4 58-63 49-114L73-35c7 11 20 15 36 15zm2-150c-56-3-57 65-48 113l85-99c-8-10-20-13-37-14" id="ae"/><g id="g"><use transform="matrix(0.05,0,0,0.05,0,0)" xlink:href="#ad"/><use transform="matrix(0.05,0,0,0.05,10.950000000000001,0)" xlink:href="#ae"/><use transform="matrix(0.05,0,0,0.05,21.900000000000002,0)" xlink:href="#V"/></g><path d="M27 0v-27h64v-190l-56 39v-29l58-41h29v221h61V0H27" id="af"/><path d="M33 0v-38h34V0H33" id="ag"/><g id="h"><use transform="matrix(0.05,0,0,0.05,0,0)" xlink:href="#af"/><use transform="matrix(0.05,0,0,0.05,10,0)" xlink:href="#ag"/></g><g id="i"><use transform="matrix(0.05,0,0,0.05,0,0)" xlink:href="#aa"/><use transform="matrix(0.05,0,0,0.05,3.95,0)" xlink:href="#P"/><use transform="matrix(0.05,0,0,0.05,13.949999999999998,0)" xlink:href="#L"/><use transform="matrix(0.05,0,0,0.05,17.9,0)" xlink:href="#N"/></g><path d="M101-251c82-7 93 87 43 132L82-64C71-53 59-42 53-27h129V0H18c2-99 128-94 128-182 0-28-16-43-45-43s-46 15-49 41l-32-3c6-41 34-60 81-64" id="ah"/><path d="M101-251c68 0 85 55 85 127S166 4 100 4C33 4 14-52 14-124c0-73 17-127 87-127zm-1 229c47 0 54-49 54-102s-4-102-53-102c-51 0-55 48-55 102 0 53 5 102 54 102" id="ai"/><path d="M155-56V0h-30v-56H8v-25l114-167h33v167h35v25h-35zm-30-156c-27 46-58 90-88 131h88v-131" id="aj"/><g id="j"><use transform="matrix(0.05,0,0,0.05,0,0)" xlink:href="#ah"/><use transform="matrix(0.05,0,0,0.05,10,0)" xlink:href="#ai"/><use transform="matrix(0.05,0,0,0.05,20,0)" xlink:href="#af"/><use transform="matrix(0.05,0,0,0.05,30,0)" xlink:href="#aj"/></g><path d="M205 0l-28-72H64L36 0H1l101-248h38L239 0h-34zm-38-99l-47-123c-12 45-31 82-46 123h93" id="ak"/><g id="k"><use transform="matrix(0.05,0,0,0.05,0,0)" xlink:href="#ak"/><use transform="matrix(0.05,0,0,0.05,12,0)" xlink:href="#L"/><use transform="matrix(0.05,0,0,0.05,15.949999999999998,0)" xlink:href="#H"/><use transform="matrix(0.05,0,0,0.05,25.950000000000003,0)" xlink:href="#K"/><use transform="matrix(0.05,0,0,0.05,35.95,0)" xlink:href="#V"/></g><path d="M134-131c28 9 52 24 51 62-1 50-34 73-85 73S17-19 16-69c0-36 21-54 49-61-75-25-45-126 34-121 46 3 78 18 79 63 0 33-17 51-44 57zm-34-11c31 1 46-15 46-44 0-28-17-43-47-42-29 0-46 13-45 42 1 28 16 44 46 44zm1 122c35 0 51-18 51-52 0-30-18-46-53-46-33 0-51 17-51 47 0 34 19 51 53 51" id="al"/><path d="M16-82v-28h88v28H16" id="am"/><path d="M99-251c64 0 84 50 84 122C183-37 130 33 47-8c-14-7-20-23-25-40l30-5c6 39 69 39 84 7 9-19 16-44 16-74-10 22-31 35-62 35-49 0-73-33-73-83 0-54 28-83 82-83zm-1 141c31-1 51-18 51-49 0-36-14-67-51-67-34 0-49 23-49 58 0 34 15 58 49 58" id="an"/><g id="l"><use transform="matrix(0.05,0,0,0.05,0,0)" xlink:href="#af"/><use transform="matrix(0.05,0,0,0.05,10,0)" xlink:href="#al"/><use transform="matrix(0.05,0,0,0.05,20,0)" xlink:href="#am"/><use transform="matrix(0.05,0,0,0.05,25.950000000000003,0)" xlink:href="#af"/><use transform="matrix(0.05,0,0,0.05,35.95,0)" xlink:href="#an"/></g><path d="M126-127c33 6 58 20 58 59 0 88-139 92-164 29-3-8-5-16-6-25l32-3c6 27 21 44 54 44 32 0 52-15 52-46 0-38-36-46-79-43v-28c39 1 72-4 72-42 0-27-17-43-46-43-28 0-47 15-49 41l-32-3c6-42 35-63 81-64 48-1 79 21 79 65 0 36-21 52-52 59" id="ao"/><g id="m"><use transform="matrix(0.05,0,0,0.05,0,0)" xlink:href="#af"/><use transform="matrix(0.05,0,0,0.05,10,0)" xlink:href="#ag"/><use transform="matrix(0.05,0,0,0.05,15,0)" xlink:href="#ao"/><use transform="matrix(0.05,0,0,0.05,25,0)" xlink:href="#aj"/><use transform="matrix(0.05,0,0,0.05,35,0)" xlink:href="#al"/></g><path d="M143 0L79-87 56-68V0H24v-261h32v163l83-92h37l-77 82L181 0h-38" id="ap"/><g id="n"><use transform="matrix(0.05,0,0,0.05,0,0)" xlink:href="#ap"/><use transform="matrix(0.05,0,0,0.05,9,0)" xlink:href="#V"/><use transform="matrix(0.05,0,0,0.05,13.949999999999998,0)" xlink:href="#ag"/></g><g id="o"><use transform="matrix(0.05,0,0,0.05,0,0)" xlink:href="#ah"/><use transform="matrix(0.05,0,0,0.05,10,0)" xlink:href="#ai"/></g><g id="p"><use transform="matrix(0.05,0,0,0.05,0,0)" xlink:href="#X"/><use transform="matrix(0.05,0,0,0.05,10,0)" xlink:href="#V"/></g><g id="q"><use transform="matrix(0.05,0,0,0.05,0,0)" xlink:href="#K"/><use transform="matrix(0.05,0,0,0.05,10,0)" xlink:href="#L"/><use transform="matrix(0.05,0,0,0.05,13.949999999999998,0)" xlink:href="#L"/><use transform="matrix(0.05,0,0,0.05,17.9,0)" xlink:href="#K"/><use transform="matrix(0.05,0,0,0.05,27.899999999999995,0)" xlink:href="#V"/></g><g id="r"><use transform="matrix(0.05,0,0,0.05,0,0)" xlink:href="#H"/><use transform="matrix(0.05,0,0,0.05,10,0)" xlink:href="#K"/><use transform="matrix(0.05,0,0,0.05,20,0)" xlink:href="#V"/><use transform="matrix(0.05,0,0,0.05,25.950000000000003,0)" xlink:href="#R"/><use transform="matrix(0.05,0,0,0.05,35.95,0)" xlink:href="#O"/><use transform="matrix(0.05,0,0,0.05,44.95,0)" xlink:href="#K"/><use transform="matrix(0.05,0,0,0.05,54.95,0)" xlink:href="#V"/></g><g id="s"><use transform="matrix(0.05,0,0,0.05,0,0)" xlink:href="#ao"/><use transform="matrix(0.05,0,0,0.05,10,0)" xlink:href="#ag"/><use transform="matrix(0.05,0,0,0.05,15,0)" xlink:href="#ai"/><use transform="matrix(0.05,0,0,0.05,25,0)" xlink:href="#ah"/><use transform="matrix(0.05,0,0,0.05,35,0)" xlink:href="#al"/></g><g id="t"><use transform="matrix(0.05,0,0,0.05,0,0)" xlink:href="#af"/><use transform="matrix(0.05,0,0,0.05,10,0)" xlink:href="#ag"/></g><g id="u"><use transform="matrix(0.05,0,0,0.05,0,0)" xlink:href="#ah"/><use transform="matrix(0.05,0,0,0.05,10,0)" xlink:href="#ai"/><use transform="matrix(0.05,0,0,0.05,20,0)" xlink:href="#af"/><use transform="matrix(0.05,0,0,0.05,30,0)" xlink:href="#aj"/></g><g id="v"><use transform="matrix(0.05,0,0,0.05,0,0)" xlink:href="#M"/><use transform="matrix(0.05,0,0,0.05,9,0)" xlink:href="#K"/><use transform="matrix(0.05,0,0,0.05,19,0)" xlink:href="#J"/><use transform="matrix(0.05,0,0,0.05,29,0)" xlink:href="#K"/><use transform="matrix(0.05,0,0,0.05,39,0)" xlink:href="#V"/><use transform="matrix(0.05,0,0,0.05,44.95,0)" xlink:href="#K"/></g><path d="M110-160c48 1 74 30 74 79 0 53-28 85-80 85-65 0-83-55-86-122-5-90 50-162 133-122 14 7 22 21 27 39l-31 6c-5-40-67-38-82-6-9 19-15 44-15 74 11-20 30-34 60-33zm-7 138c34 0 49-23 49-58s-16-56-50-56c-29 0-50 16-49 49 1 36 15 65 50 65" id="aq"/><g id="w"><use transform="matrix(0.05,0,0,0.05,0,0)" xlink:href="#an"/><use transform="matrix(0.05,0,0,0.05,10,0)" xlink:href="#aj"/><use transform="matrix(0.05,0,0,0.05,20,0)" xlink:href="#aq"/></g><g id="x"><use transform="matrix(0.05,0,0,0.05,0,0)" xlink:href="#G"/><use transform="matrix(0.05,0,0,0.05,12.950000000000001,0)" xlink:href="#H"/><use transform="matrix(0.05,0,0,0.05,22.950000000000003,0)" xlink:href="#K"/><use transform="matrix(0.05,0,0,0.05,32.95,0)" xlink:href="#ab"/><use transform="matrix(0.05,0,0,0.05,42.95,0)" xlink:href="#R"/><use transform="matrix(0.05,0,0,0.05,52.95,0)" xlink:href="#K"/><use transform="matrix(0.05,0,0,0.05,62.95,0)" xlink:href="#J"/><use transform="matrix(0.05,0,0,0.05,72.95,0)" xlink:href="#H"/><use transform="matrix(0.05,0,0,0.05,82.95,0)" xlink:href="#K"/></g><path d="M30-248c118-7 216 8 213 122C240-48 200 0 122 0H30v-248zM63-27c89 8 146-16 146-99s-60-101-146-95v194" id="ar"/><g id="y"><use transform="matrix(0.05,0,0,0.05,0,0)" xlink:href="#ar"/><use transform="matrix(0.05,0,0,0.05,12.950000000000001,0)" xlink:href="#N"/><use transform="matrix(0.05,0,0,0.05,16.900000000000002,0)" xlink:href="#M"/><use transform="matrix(0.05,0,0,0.05,25.900000000000002,0)" xlink:href="#S"/><use transform="matrix(0.05,0,0,0.05,35.900000000000006,0)" xlink:href="#K"/><use transform="matrix(0.05,0,0,0.05,45.900000000000006,0)" xlink:href="#J"/><use transform="matrix(0.05,0,0,0.05,55.900000000000006,0)" xlink:href="#M"/><use transform="matrix(0.05,0,0,0.05,64.9,0)" xlink:href="#I"/><use transform="matrix(0.05,0,0,0.05,74.9,0)" xlink:href="#ac"/><use transform="matrix(0.05,0,0,0.05,79.9,0)" xlink:href="#N"/><use transform="matrix(0.05,0,0,0.05,83.85000000000001,0)" xlink:href="#R"/><use transform="matrix(0.05,0,0,0.05,93.85000000000001,0)" xlink:href="#J"/></g><g id="z"><use transform="matrix(0.05,0,0,0.05,0,0)" xlink:href="#ac"/><use transform="matrix(0.05,0,0,0.05,5,0)" xlink:href="#N"/><use transform="matrix(0.05,0,0,0.05,8.95,0)" xlink:href="#L"/></g><g id="A"><use transform="matrix(0.05,0,0,0.05,0,0)" xlink:href="#P"/><use transform="matrix(0.05,0,0,0.05,10,0)" xlink:href="#H"/><use transform="matrix(0.05,0,0,0.05,20,0)" xlink:href="#K"/><use transform="matrix(0.05,0,0,0.05,30,0)" xlink:href="#ab"/><use transform="matrix(0.05,0,0,0.05,40,0)" xlink:href="#R"/><use transform="matrix(0.05,0,0,0.05,50,0)" xlink:href="#K"/><use transform="matrix(0.05,0,0,0.05,60,0)" xlink:href="#J"/><use transform="matrix(0.05,0,0,0.05,70,0)" xlink:href="#H"/><use transform="matrix(0.05,0,0,0.05,80,0)" xlink:href="#K"/><use transform="matrix(0.05,0,0,0.05,90,0)" xlink:href="#M"/><use transform="matrix(0.05,0,0,0.05,99,0)" xlink:href="#I"/><use transform="matrix(0.05,0,0,0.05,109,0)" xlink:href="#ac"/><use transform="matrix(0.05,0,0,0.05,114,0)" xlink:href="#M"/></g><path d="M153-248C145-148 188 4 80 4 36 3 13-21 6-62l32-5c4 25 16 42 43 43 27 0 39-20 39-49v-147H72v-28h81" id="as"/><g id="B"><use transform="matrix(0.05,0,0,0.05,0,0)" xlink:href="#as"/><use transform="matrix(0.05,0,0,0.05,9,0)" xlink:href="#I"/></g><path d="M64 0c3-98 48-159 88-221H18v-27h164v26C143-157 98-101 97 0H64" id="at"/><g id="C"><use transform="matrix(0.05,0,0,0.05,0,0)" xlink:href="#ao"/><use transform="matrix(0.05,0,0,0.05,10,0)" xlink:href="#ag"/><use transform="matrix(0.05,0,0,0.05,15,0)" xlink:href="#an"/><use transform="matrix(0.05,0,0,0.05,25,0)" xlink:href="#ai"/><use transform="matrix(0.05,0,0,0.05,35,0)" xlink:href="#at"/></g><path d="M190 0L58-211 59 0H30v-248h39L202-35l-2-213h31V0h-41" id="au"/><g id="D"><use transform="matrix(0.05,0,0,0.05,0,0)" xlink:href="#au"/><use transform="matrix(0.05,0,0,0.05,12.950000000000001,0)" xlink:href="#K"/><use transform="matrix(0.05,0,0,0.05,22.950000000000003,0)" xlink:href="#aa"/></g><path d="M103-251c84 0 111 97 45 133-19 10-37 24-39 52H78c0-63 77-55 77-114 0-30-21-42-52-43-32 0-53 17-56 46l-32-2c7-45 34-72 88-72zM77 0v-35h34V0H77" id="av"/><use transform="matrix(0.05,0,0,0.05,0,0)" xlink:href="#av" id="E"/><g id="F"><use transform="matrix(0.05,0,0,0.05,0,0)" xlink:href="#aq"/><use transform="matrix(0.05,0,0,0.05,10,0)" xlink:href="#ag"/><use transform="matrix(0.05,0,0,0.05,15,0)" xlink:href="#ai"/><use transform="matrix(0.05,0,0,0.05,25,0)" xlink:href="#an"/><use transform="matrix(0.05,0,0,0.05,35,0)" xlink:href="#ai"/></g></defs></g></svg>